<svg fill="none" height="723" viewBox="0 0 261 723" width="261" xmlns="http://www.w3.org/2000/svg" xmlns:xlink="http://www.w3.org/1999/xlink"><filter id="a" color-interpolation-filters="sRGB" filterUnits="userSpaceOnUse" height="609.816" width="259.948" x=".920898" y="-172"><feFlood flood-opacity="0" result="BackgroundImageFix"/><feColorMatrix in="SourceAlpha" result="hardAlpha" type="matrix" values="0 0 0 0 0 0 0 0 0 0 0 0 0 0 0 0 0 0 127 0"/><feOffset dx="-20" dy="20"/><feGaussianBlur stdDeviation="6"/><feComposite in2="hardAlpha" operator="out"/><feColorMatrix type="matrix" values="0 0 0 0 0 0 0 0 0 0 0 0 0 0 0 0 0 0 0.2 0"/><feBlend in2="BackgroundImageFix" mode="normal" result="effect1_dropShadow_4152_8837"/><feBlend in="SourceGraphic" in2="effect1_dropShadow_4152_8837" mode="normal" result="shape"/></filter><filter id="b" color-interpolation-filters="sRGB" filterUnits="userSpaceOnUse" height="506.424" width="113.264" x="78.3105" y="421.689"><feFlood flood-opacity="0" result="BackgroundImageFix"/><feColorMatrix in="SourceAlpha" result="hardAlpha" type="matrix" values="0 0 0 0 0 0 0 0 0 0 0 0 0 0 0 0 0 0 127 0"/><feOffset dx="-20" dy="20"/><feGaussianBlur stdDeviation="6"/><feComposite in2="hardAlpha" operator="out"/><feColorMatrix type="matrix" values="0 0 0 0 0 0 0 0 0 0 0 0 0 0 0 0 0 0 0.2 0"/><feBlend in2="BackgroundImageFix" mode="normal" result="effect1_dropShadow_4152_8837"/><feBlend in="SourceGraphic" in2="effect1_dropShadow_4152_8837" mode="normal" result="shape"/></filter><g filter="url(#a)"><path d="m190.591 405.787h-80.512v-34.435c0-5.869 1.561-11.449 4.626-16.654 2.804-4.741 6.389-9.396 10.667-13.82 4.134-4.25 8.557-8.471 13.183-12.548 4.423-3.903 8.644-8.008 12.517-12.23 3.73-4.047 6.852-8.298 9.28-12.634 2.226-3.99 3.296-8.241 3.296-13.069 0-3.18-.521-6.274-1.532-9.223-.983-2.833-2.429-5.349-4.337-7.431-1.908-2.11-4.249-3.845-6.996-5.175-2.659-1.272-5.782-1.937-9.308-1.937-4.713 0-8.471.781-11.188 2.342-2.776 1.59-4.857 3.585-6.36 6.101-1.59 2.659-2.689 5.782-3.267 9.28-.636 3.875-.954 7.865-.954 11.883v5.552c0 1.561.116 3.209.347 4.828l.809 5.754h-86.2355l-.4625-4.511c-.2602-2.66-.5493-5.233-.8095-7.719-.2891-2.631-.4336-5.436-.4336-8.298 0-14.167 3.0354-27.149 9.0196-38.57 5.9553-11.333 14.31-21.135 24.8619-29.143 10.4361-7.922 22.9827-14.052 37.2636-18.244 12.72-3.73 26.625-5.783 41.369-6.187v-371.699h10.06v381.702h-5.03c-15.668 0-30.354 1.966-43.566 5.841-13.0956 3.845-24.5436 9.425-33.9968 16.595-9.3666 7.113-16.7673 15.787-22.0288 25.819-5.2325 9.946-7.8922 21.367-7.8922 33.886 0 2.515.1157 4.944.3759 7.228.1156 1.07.2312 2.168.3469 3.267h65.913c0-.174 0-.347 0-.52v-5.552c0-4.539.347-9.078 1.069-13.473.781-4.799 2.313-9.107 4.597-12.866 2.37-3.932 5.724-7.17 9.945-9.599 4.249-2.457 9.684-3.701 16.189-3.701 5.03 0 9.626.983 13.645 2.92 3.931 1.88 7.343 4.424 10.118 7.518 2.775 3.093 4.915 6.765 6.331 10.871 1.388 4.019 2.081 8.211 2.081 12.519 0 6.476-1.532 12.519-4.567 17.955-2.804 5.03-6.389 9.917-10.668 14.543-4.105 4.452-8.557 8.789-13.24 12.952-4.423 3.904-8.673 7.951-12.604 11.999-3.73 3.874-6.852 7.893-9.251 11.941-2.168 3.672-3.238 7.459-3.238 11.536v24.373h60.391v-12.49c0-4.973 2.255-9.772 6.707-14.225 3.671-3.672 8.268-7.517 13.674-11.478 5.204-3.817 10.812-7.98 16.854-12.548 5.753-4.337 11.188-9.368 16.189-14.948 4.886-5.436 9.02-11.652 12.286-18.446 3.152-6.534 4.742-14.196 4.742-22.783 0-11.912-2.4-22.841-7.141-32.527-4.741-9.685-11.535-18.041-20.15-24.835-8.73-6.882-19.369-12.288-31.684-16.047l2.949-9.628c13.5 4.135 25.266 10.12 34.951 17.781 9.8 7.749 17.519 17.261 22.925 28.306 5.406 11.044 8.152 23.477 8.152 36.95 0 10.09-1.937 19.227-5.724 27.149-3.7 7.661-8.355 14.658-13.876 20.817-5.435 6.071-11.362 11.536-17.635 16.248-6.071 4.569-11.708 8.79-16.969 12.635-5.002 3.643-9.194 7.17-12.489 10.466-2.486 2.487-3.758 4.887-3.758 7.113v22.552z" fill="#fff"/></g><g filter="url(#b)"><path d="m155.553 896.114h-10.06v-397.893h-35.182v-76.532h81.263v71.501h-10.06v-61.439h-61.172v56.437h35.211z" fill="#fff"/></g></svg>